<svg xmlns="http://www.w3.org/2000/svg" width="375" height="812" viewBox="0 0 375 812"><defs><linearGradient id="profile" x1="0" y1="0" x2="1" y2="1"><stop stop-color="#3187f2"/><stop offset="1" stop-color="#47c7d4"/></linearGradient></defs><rect width="375" height="812" fill="#f3f6f9"/><rect x="0" y="0" width="375" height="28" rx="0" fill="#fff" stroke="none"/><text x="14" y="19" font-size="11" fill="#1f2937" font-weight="500" text-anchor="start" font-family="Microsoft YaHei,Arial,sans-serif">7:43</text><text x="360" y="19" font-size="10" fill="#1f2937" font-weight="400" text-anchor="end" font-family="Microsoft YaHei,Arial,sans-serif">▮▮ 4G ▰</text><rect x="0" y="28" width="375" height="48" rx="0" fill="#fff" stroke="none"/><text x="14" y="60" font-size="24" fill="#445466" font-weight="400" text-anchor="start" font-family="Microsoft YaHei,Arial,sans-serif">‹</text><text x="188" y="59" font-size="16" fill="#273444" font-weight="600" text-anchor="middle" font-family="Microsoft YaHei,Arial,sans-serif">工单进度</text><rect x="0" y="76" width="375" height="36" rx="0" fill="#dcf9f5" stroke="none"/><text x="188" y="99" font-size="12" fill="#168f88" font-weight="500" text-anchor="middle" font-family="Microsoft YaHei,Arial,sans-serif">处理中 · 预计今日 16:30 完成</text><rect x="12" y="126" width="351" height="117" rx="8" fill="#fff" stroke="none"/><rect x="12" y="126" width="5" height="117" rx="3" fill="#2fc8c3" stroke="none"/><text x="28" y="150" font-size="14" fill="#273444" font-weight="600" text-anchor="start" font-family="Microsoft YaHei,Arial,sans-serif">WO2025070012</text><text x="28" y="174" font-size="11" fill="#8995a5" font-weight="400" text-anchor="start" font-family="Microsoft YaHei,Arial,sans-serif">报修类型</text><text x="346" y="174" font-size="11" fill="#445466" font-weight="400" text-anchor="end" font-family="Microsoft YaHei,Arial,sans-serif">设备维修</text><text x="28" y="198" font-size="11" fill="#8995a5" font-weight="400" text-anchor="start" font-family="Microsoft YaHei,Arial,sans-serif">报修位置</text><text x="346" y="198" font-size="11" fill="#445466" font-weight="400" text-anchor="end" font-family="Microsoft YaHei,Arial,sans-serif">二层公共区域</text><text x="28" y="222" font-size="11" fill="#8995a5" font-weight="400" text-anchor="start" font-family="Microsoft YaHei,Arial,sans-serif">当前处理人</text><text x="346" y="222" font-size="11" fill="#445466" font-weight="400" text-anchor="end" font-family="Microsoft YaHei,Arial,sans-serif">示例工程师</text><rect x="12" y="253" width="351" height="336" rx="8" fill="#fff" stroke="none"/><text x="28" y="279" font-size="14" fill="#273444" font-weight="600" text-anchor="start" font-family="Microsoft YaHei,Arial,sans-serif">处理进度</text><line x1="35" y1="305" x2="35" y2="349" stroke="#d7e1ea" stroke-width="2"/><circle cx="35" cy="313" r="6" fill="#2fc8c3"/><text x="52" y="317" font-size="12" fill="#374658" font-weight="600" text-anchor="start" font-family="Microsoft YaHei,Arial,sans-serif">正在维修</text><text x="52" y="336" font-size="10" fill="#8a97a6" font-weight="400" text-anchor="start" font-family="Microsoft YaHei,Arial,sans-serif">14:10 · 已更换配件并调试</text><line x1="35" y1="361" x2="35" y2="405" stroke="#d7e1ea" stroke-width="2"/><circle cx="35" cy="369" r="6" fill="#2fc8c3"/><text x="52" y="373" font-size="12" fill="#374658" font-weight="600" text-anchor="start" font-family="Microsoft YaHei,Arial,sans-serif">已到场</text><text x="52" y="392" font-size="10" fill="#8a97a6" font-weight="400" text-anchor="start" font-family="Microsoft YaHei,Arial,sans-serif">13:35 · 已上传到场照片</text><line x1="35" y1="417" x2="35" y2="461" stroke="#d7e1ea" stroke-width="2"/><circle cx="35" cy="425" r="6" fill="#2fc8c3"/><text x="52" y="429" font-size="12" fill="#374658" font-weight="600" text-anchor="start" font-family="Microsoft YaHei,Arial,sans-serif">已接单</text><text x="52" y="448" font-size="10" fill="#8a97a6" font-weight="400" text-anchor="start" font-family="Microsoft YaHei,Arial,sans-serif">13:20</text><line x1="35" y1="473" x2="35" y2="517" stroke="#d7e1ea" stroke-width="2"/><circle cx="35" cy="481" r="6" fill="#2fc8c3"/><text x="52" y="485" font-size="12" fill="#374658" font-weight="600" text-anchor="start" font-family="Microsoft YaHei,Arial,sans-serif">已派单</text><text x="52" y="504" font-size="10" fill="#8a97a6" font-weight="400" text-anchor="start" font-family="Microsoft YaHei,Arial,sans-serif">13:12</text><line x1="35" y1="529" x2="35" y2="573" stroke="#d7e1ea" stroke-width="2"/><circle cx="35" cy="537" r="6" fill="#2fc8c3"/><text x="52" y="541" font-size="12" fill="#374658" font-weight="600" text-anchor="start" font-family="Microsoft YaHei,Arial,sans-serif">已提交</text><text x="52" y="560" font-size="10" fill="#8a97a6" font-weight="400" text-anchor="start" font-family="Microsoft YaHei,Arial,sans-serif">12:58</text><rect x="12" y="744" width="351" height="48" rx="6" fill="#2fc8c3" stroke="none"/><text x="188" y="774" font-size="14" fill="#fff" font-weight="600" text-anchor="middle" font-family="Microsoft YaHei,Arial,sans-serif">联系处理人</text></svg>